# xmcd CD database file
#
# Track frame offsets:
#	150
#	11481
#	24709
#	40267
#	55651
#	69720
#	83117
#	97576
#	107806
#	120803
#	134740
#	151901
#	165648
#	180138
#
# Disc length: 2587 seconds
#
# Revision: 0
# Processed by: cddbd v1.5.2PL0 Copyright (c) Steve Scherf et al.
# Submitted via: CDex 1.51
#
DISCID=a10a190e
DTITLE=Kenny Rogers - Original Hits
DYEAR=2001
DGENRE=Country
TTITLE0=Me And Bobby Mcgee
TTITLE1=Shine On Ruby Moutain
TTITLE2=Unchained Melody
TTITLE3=My Washington Woman
TTITLE4=You Light Up My Life
TTITLE5=I Will Always Love You
TTITLE6=Heed The Call
TTITLE7=Ticket To Nowhere
TTITLE8=Ruby, Don't Take Your Love In Town
TTITLE9=Sunshine
TTITLE10=Lady
TTITLE11=Love Me Tender
TTITLE12=But You Know I Love You
TTITLE13=You Are So Beautiful
EXTD=YEAR: 2001
EXTT0=
EXTT1=
EXTT2=
EXTT3=
EXTT4=
EXTT5=
EXTT6=
EXTT7=
EXTT8=
EXTT9=
EXTT10=
EXTT11=
EXTT12=
EXTT13=
PLAYORDER=
